<svg xmlns="http://www.w3.org/2000/svg" viewBox="0 0 928.51 361.73"><defs><style>.cls-1,.cls-4{fill:#1f2626;}.cls-1{stroke:#1f2626;stroke-miterlimit:10;}.cls-2{fill:#b4ce57;}.cls-3{fill:none;}</style></defs><title>Asset 1</title><g id="Layer_2" data-name="Layer 2"><g id="Layer_3" data-name="Layer 3"><path class="cls-1" d="M897.72,59.73a7.32,7.32,0,1,1-7.33-7.33A7.33,7.33,0,0,1,897.72,59.73Z"/><path class="cls-1" d="M899.09,69.37c.1.29.21.58.33.86h-1.36A12.07,12.07,0,0,0,899.09,69.37Z"/><path class="cls-1" d="M916.42,64.91c0,.22,0,.43.05.65L910,70.23h-4.66a5.72,5.72,0,0,1-.4-.46,4.21,4.21,0,0,1-.35-.48s0,0,0,0a4.83,4.83,0,0,1-.29-.49,4.51,4.51,0,0,1-.29-.63,4.38,4.38,0,0,1-.18-.51,5.81,5.81,0,0,1-.15-.6,6,6,0,0,1-.13-1.28A6.48,6.48,0,0,1,910,59.25a6.37,6.37,0,0,1,3,.76l.3.17a1.67,1.67,0,0,1,.28.18,6.39,6.39,0,0,1,2,2.2c.08.15.16.3.23.46a.31.31,0,0,1,0,.1,5.33,5.33,0,0,1,.21.56,4.51,4.51,0,0,1,.17.6A4.61,4.61,0,0,1,916.42,64.91Z"/><path class="cls-1" d="M928,57.23l-7,5.07a11.49,11.49,0,0,0-18-5.69A13,13,0,1,0,881.7,69.39a11.94,11.94,0,0,0,1,.84H718l-15-7,.06-11H626.94L613,65.23l-199,2-16,23-36,1-112,165,11.61,15.61L243.5,294.53v.2A47,47,0,0,1,169,332.86q-6.18-.24-12.46-.4-23.91-.61-46.22-.22a42.57,42.57,0,1,0-68.88,18.21c-.15,3.59-.31,7.19-.46,10.78H.89L.5,273.73,44,220.23l57-2,19,1L121.5,247h47l29.17-38.25a34.5,34.5,0,1,0,28-61.26L240,131.23l22,2,75-113h25l17,13,131.5-1.5L516.23,26a20.22,20.22,0,0,0,2.17,2.27,21.22,21.22,0,0,0,35.45-15.55H631l14,15.51H927C927.12,31.68,927.79,51,928,57.23Z"/><path class="cls-1" d="M93.93,318.81a24,24,0,1,1-24-24A24,24,0,0,1,93.93,318.81Z"/><path class="cls-2" d="M916.48,65.73A6.49,6.49,0,0,1,910,72.22a7.1,7.1,0,0,1-1.31-.13h0a4.9,4.9,0,0,1-.63-.17,5.14,5.14,0,0,1-.55-.2l-.3-.14a2.56,2.56,0,0,1-.33-.17l-.47-.29a2.25,2.25,0,0,1-.31-.23,2.3,2.3,0,0,1-.34-.28,3.41,3.41,0,0,1-.39-.37,5.72,5.72,0,0,1-.4-.46,4.21,4.21,0,0,1-.35-.48s0,0,0,0a4.83,4.83,0,0,1-.29-.49,4.51,4.51,0,0,1-.29-.63,4.38,4.38,0,0,1-.18-.51,5.81,5.81,0,0,1-.15-.6,6,6,0,0,1-.13-1.28A6.48,6.48,0,0,1,910,59.25a6.37,6.37,0,0,1,3,.76l.3.17a1.67,1.67,0,0,1,.28.18,6.39,6.39,0,0,1,2,2.2c.08.15.16.3.23.46a.31.31,0,0,1,0,.1,5.33,5.33,0,0,1,.21.56,4.51,4.51,0,0,1,.17.6,4.61,4.61,0,0,1,.11.63c0,.22,0,.43.05.65A.91.91,0,0,1,916.48,65.73Z"/><path class="cls-1" d="M544.59,12.48a1.92,1.92,0,0,1,0,.24,11.62,11.62,0,1,1,0-.24Z"/><path class="cls-2" d="M897.72,59.73a7.32,7.32,0,1,1-7.33-7.33A7.33,7.33,0,0,1,897.72,59.73Z"/><path class="cls-1" d="M916.48,65.73A6.49,6.49,0,0,1,910,72.22a7.1,7.1,0,0,1-1.31-.13h0a4.9,4.9,0,0,1-.63-.17,5.14,5.14,0,0,1-.55-.2l-.3-.14a2.56,2.56,0,0,1-.33-.17l-.47-.29a2.25,2.25,0,0,1-.31-.23,2.3,2.3,0,0,1-.34-.28,3.41,3.41,0,0,1-.39-.37,5.72,5.72,0,0,1-.4-.46,4.21,4.21,0,0,1-.35-.48s0,0,0,0a4.83,4.83,0,0,1-.29-.49,4.51,4.51,0,0,1-.29-.63,4.38,4.38,0,0,1-.18-.51,5.81,5.81,0,0,1-.15-.6,6,6,0,0,1-.13-1.28A6.48,6.48,0,0,1,910,59.25a6.37,6.37,0,0,1,3,.76l.3.17a1.67,1.67,0,0,1,.28.18,6.39,6.39,0,0,1,2,2.2c.08.15.16.3.23.46a.31.31,0,0,1,0,.1,5.33,5.33,0,0,1,.21.56,4.51,4.51,0,0,1,.17.6,4.61,4.61,0,0,1,.11.63c0,.22,0,.43.05.65A.91.91,0,0,1,916.48,65.73Z"/><path class="cls-1" d="M897.72,59.73a7.32,7.32,0,1,1-7.33-7.33A7.33,7.33,0,0,1,897.72,59.73Z"/><path class="cls-3" d="M225.68,147.48a34.5,34.5,0,0,0-28,61.26,34.5,34.5,0,1,0,28-61.26Zm-7.18,55.68a21.93,21.93,0,0,1-21.93-21.93c0-.25,0-.5,0-.74a21.93,21.93,0,1,1,21.91,22.67Z"/><path class="cls-3" d="M240.43,181.23a21.93,21.93,0,0,1-43.86,0c0-.25,0-.5,0-.74a21.93,21.93,0,0,1,43.84.74Z"/><path class="cls-4" d="M240.43,181.23a21.93,21.93,0,0,1-43.86,0c0-.25,0-.5,0-.74a21.93,21.93,0,0,1,43.84.74Z"/></g></g></svg>